<svg width="172" height="38" viewBox="0 0 172 38" fill="none" xmlns="http://www.w3.org/2000/svg">
<path d="M17.1089 27.0868L17.3007 26.6072L17.9242 25.9119C18.2439 25.3843 18.5077 25.0726 18.7155 24.9767C18.7475 24.8488 18.7954 24.7289 18.8594 24.617C18.9233 24.5051 18.9713 24.3292 19.0033 24.0894L19.2191 23.7058C19.283 23.6418 19.315 23.5939 19.315 23.5619C19.315 23.5299 19.2511 23.434 19.1232 23.2741L19.0033 22.7706C19.0033 22.6427 18.5796 22.219 17.7324 21.4997H17.5405L15.814 20.6604L15.7181 20.4206L15.5263 20.3726L15.2865 20.4686H15.2385L14.4232 20.2288C13.7678 20.0529 13.3362 19.917 13.1283 19.8211C13.0964 19.8531 13.0484 19.8691 12.9845 19.8691L12.0253 19.6533C11.7535 19.5893 11.5857 19.5254 11.5217 19.4614C11.4738 19.3815 11.3379 19.3096 11.1141 19.2456C10.9063 19.1657 10.7704 19.0937 10.7064 19.0298C10.6425 18.9658 10.5146 18.9339 10.3228 18.9339L9.72328 19.0778C9.72328 19.0298 9.49948 18.9499 9.05186 18.838C8.98792 18.6781 8.93996 18.5982 8.90799 18.5982L8.21259 18.6941C7.74899 18.4703 7.5092 18.3584 7.49321 18.3584C7.41328 18.3584 7.13352 18.3184 6.65393 18.2385C6.17435 18.1426 5.86262 18.0466 5.71874 17.9507C5.57487 17.8548 5.35905 17.7589 5.0713 17.663L4.92743 17.5191C4.89545 17.4871 4.80753 17.4552 4.66365 17.4232H4.23203C4.13611 17.4232 4.00023 17.3433 3.82438 17.1834C3.66452 17.0235 3.4487 16.8637 3.17694 16.7038C2.92116 16.5439 2.68936 16.2962 2.48154 15.9604C2.2897 15.6087 2.18579 15.2571 2.16981 14.9054C2.13783 14.8734 2.12185 14.8414 2.12185 14.8094L2.26572 14.0421C2.4096 13.0669 2.86521 12.1637 3.63254 11.3324C3.76043 10.9008 4.02421 10.5891 4.42386 10.3973L4.51978 10.0615C4.98338 9.66189 5.31109 9.34216 5.50293 9.10237C5.71075 8.86258 5.94255 8.67074 6.19833 8.52687C6.45411 8.367 6.65393 8.22313 6.79781 8.09524L7.22944 7.90341C7.21345 7.75953 7.56515 7.42382 8.28453 6.89627C9.01989 6.35274 9.5874 6.00105 9.98705 5.84119C10.4027 5.66534 10.6745 5.53745 10.8024 5.45752C10.9462 5.37759 11.3459 5.25769 12.0013 5.09783C12.1612 4.6662 12.417 4.45039 12.7687 4.45039H13.1283L13.6079 3.9708L14.2554 4.01876C14.2873 3.98679 14.3753 3.89087 14.5191 3.73101C14.663 3.55516 14.9028 3.46724 15.2385 3.46724L18.14 2.58H18.3318L18.5237 2.62796C18.6516 2.62796 18.8114 2.51606 19.0033 2.29225C19.2111 2.06845 19.4749 1.95654 19.7946 1.95654C19.8585 1.95654 19.9784 2.02049 20.1543 2.14838C20.1543 2.18035 20.1703 2.19633 20.2022 2.19633L20.8257 2.0045L21.5691 2.05246L22.5042 1.81267C23.0957 1.81267 23.6153 1.95654 24.0629 2.24429L24.1109 2.14838V2.0045C24.1109 1.73274 24.2627 1.59685 24.5665 1.59685C24.6944 1.59685 24.7743 1.62882 24.8063 1.69277L25.094 1.86062H25.2619C25.2938 1.86062 25.5017 1.95654 25.8853 2.14838C26.1251 1.98851 26.277 1.90858 26.3409 1.90858C26.6447 1.90858 26.8845 2.03647 27.0603 2.29225L27.468 2.24429C27.5958 2.1164 27.6758 2.05246 27.7077 2.05246C27.8037 2.05246 27.9316 2.18035 28.0914 2.43613L28.2353 2.48409H28.8348C28.8667 2.48409 28.9307 2.53204 29.0266 2.62796L29.2904 2.84378C29.4183 2.97166 29.5062 3.07558 29.5542 3.15551C29.6021 3.23544 29.6581 3.30737 29.722 3.37132C30.1376 3.19547 30.3615 3.10755 30.3934 3.10755C30.5533 3.10755 30.6732 3.24343 30.7531 3.5152C30.7531 3.739 30.889 3.96281 31.1608 4.18662C31.4485 4.39444 31.5924 4.61824 31.5924 4.85804C31.9441 5.0179 32.1199 5.27368 32.1199 5.62537L32.5755 6.80036L32.4796 7.20801C32.6075 7.46378 32.6715 7.60766 32.6715 7.63963L32.5755 8.52687L32.6715 9.46206C32.6715 9.95763 32.4397 10.3813 31.9761 10.733C31.8801 10.733 31.7203 10.8049 31.4965 10.9488C31.2887 11.0767 31.1688 11.1406 31.1368 11.1406C30.7211 11.1406 30.4414 11.0447 30.2975 10.8529C30.1696 10.645 30.0417 10.4932 29.9138 10.3973C29.786 10.3013 29.722 10.1734 29.722 10.0136C29.722 9.6459 29.9698 9.28621 30.4654 8.93451C30.6892 8.93451 30.849 8.86258 30.945 8.7187C30.945 8.38299 30.873 8.15119 30.7291 8.0233C30.5853 7.89541 30.4254 7.71956 30.2496 7.49576C30.0897 7.27195 29.9138 7.0961 29.722 6.96821C29.5302 6.82434 29.3703 6.64849 29.2424 6.44067C29.1305 6.23285 29.0266 6.12894 28.9307 6.12894L28.595 6.1769L27.8996 6.03302C27.1642 5.9371 26.4928 5.76925 25.8853 5.52946H25.4057L24.1109 5.33762C23.887 5.43354 23.5673 5.4815 23.1517 5.4815L21.5691 5.72129L20.9216 5.67333C20.8737 5.67333 20.434 5.80921 19.6027 6.08098L19.363 6.12894H18.7155C18.6835 6.12894 18.4757 6.20887 18.0921 6.36873C17.7244 6.52859 17.4126 6.6405 17.1569 6.70444L16.941 6.80036C16.9091 6.83233 16.8611 6.84832 16.7972 6.84832L16.4135 6.80036L14.3033 7.83147L13.9676 7.63963C13.6959 7.51174 13.544 7.4478 13.512 7.4478C13.2882 7.4478 13.1763 7.5597 13.1763 7.78351L13.1283 8.23912C12.9205 8.367 12.7846 8.46292 12.7207 8.52687C12.6567 8.59081 12.5768 8.63877 12.4809 8.67074H12.1931C12.0013 8.67074 11.8175 8.75867 11.6416 8.93451C11.4818 9.09438 11.3379 9.1823 11.21 9.19829C11.0821 9.21427 10.8983 9.28621 10.6585 9.4141C10.6265 9.47804 10.4986 9.54199 10.2748 9.60593C10.051 9.66988 9.87515 9.82175 9.74726 10.0615C9.63536 10.2853 9.49948 10.3973 9.33961 10.3973L8.86003 10.3013L8.59626 10.7809C8.26055 10.8609 8.06871 10.9088 8.02075 10.9248C7.81293 11.1966 7.60511 11.4044 7.39729 11.5483C7.18947 11.6921 6.98165 11.852 6.77383 12.0278C6.582 12.1877 6.43812 12.3556 6.3422 12.5314C6.26227 12.7073 6.13438 12.8511 5.95853 12.963C5.78269 13.059 5.63082 13.2668 5.50293 13.5865L5.26314 13.8263C4.86348 14.162 4.66365 14.5217 4.66365 14.9054C4.66365 15.1771 4.85549 15.3769 5.23916 15.5048C5.62282 15.6327 5.86262 15.7366 5.95853 15.8166C6.05445 15.8965 6.19833 15.9365 6.39016 15.9365C6.582 15.9365 6.76584 15.9764 6.94169 16.0564C7.11753 16.1363 7.41328 16.2642 7.82892 16.44C7.90885 16.6958 7.98878 16.8237 8.06871 16.8237C8.10068 16.8237 8.16463 16.7598 8.26055 16.6319C8.35646 16.504 8.50034 16.44 8.69217 16.44C8.89999 16.44 9.09982 16.5679 9.29166 16.8237L9.48349 16.6798H9.57941L9.89114 16.7757H9.9391L10.2268 16.6319C10.2588 16.5999 10.3068 16.5839 10.3707 16.5839C10.4187 16.5839 10.6665 16.6638 11.1141 16.8237H11.162C11.194 16.8237 11.3219 16.7917 11.5457 16.7278C11.7855 16.7917 11.9214 16.8397 11.9534 16.8717L12.2891 17.0635C12.2891 17.1115 12.321 17.1354 12.385 17.1354C12.4489 17.1354 12.5448 17.1035 12.6727 17.0395C12.8006 16.9596 12.9205 16.9196 13.0324 16.9196C13.1603 16.9196 13.3042 17.0075 13.4641 17.1834C13.7198 17.0715 13.8637 17.0155 13.8957 17.0155C14.0396 17.0155 14.2873 17.1354 14.639 17.3752L15.0946 17.4711H15.6222L16.4135 17.615C16.6373 17.8548 16.8691 18.0387 17.1089 18.1665C17.1409 17.9907 17.2528 17.9028 17.4446 17.9028C17.7004 17.9028 18.0921 18.0067 18.6196 18.2145L18.8114 18.2625L19.0033 18.4063C19.275 18.3424 19.4429 18.3104 19.5068 18.3104C19.8266 18.3104 19.9864 18.4223 19.9864 18.6461C19.9864 18.838 19.9385 19.0857 19.8425 19.3895C19.8745 19.3895 19.9225 19.4215 19.9864 19.4854C20.0663 19.3895 20.1543 19.3255 20.2502 19.2936L20.6339 19.0778C20.6978 19.0138 20.7458 18.9818 20.7777 18.9818C21.1454 18.9818 21.665 19.2376 22.3364 19.7492C23.0078 20.2607 23.3915 20.8442 23.4874 21.4997C23.4874 21.6915 23.5513 21.9153 23.6792 22.1711L23.5833 22.4828L23.6313 22.8665C23.6313 22.8985 23.5993 23.0104 23.5354 23.2022L23.4874 23.5619C23.4554 23.6258 23.4075 23.6818 23.3435 23.7297C23.2796 23.7777 23.2316 23.8336 23.1996 23.8976L23.3435 24.3052V24.4012C23.3435 24.4651 23.2796 24.553 23.1517 24.6649C23.0398 24.7768 22.9678 24.8807 22.9359 24.9767C22.9039 25.0726 22.8479 25.1765 22.768 25.2884C22.6881 25.3843 22.6321 25.5042 22.6002 25.6481C22.5682 25.792 22.4083 25.9598 22.1206 26.1516C21.8488 26.3275 21.7129 26.4634 21.7129 26.5593C21.7129 26.6552 21.7449 26.7032 21.8088 26.7032C22.0007 26.7032 22.2005 26.6152 22.4083 26.4394C22.6321 26.2476 22.8 26.1357 22.9119 26.1037C23.0238 26.0717 23.2156 25.9758 23.4874 25.8159L25.7414 24.7608C27.42 23.9615 28.3552 23.5619 28.547 23.5619C28.8028 23.5619 28.9307 23.6898 28.9307 23.9455C28.9307 24.0415 28.8188 24.2253 28.595 24.4971C28.563 25.2484 28.2353 25.688 27.6118 25.8159C27.372 25.9758 27.1882 26.1436 27.0603 26.3195H26.8685C26.4688 26.7671 26.0132 26.9909 25.5017 26.9909H25.3578C24.7663 27.5824 24.0469 27.9101 23.1996 27.9741C22.6401 28.5336 22.1765 28.8133 21.8088 28.8133L21.4252 28.9093C21.0255 29.0691 20.7458 29.1491 20.5859 29.1491C20.5539 29.1491 20.49 29.213 20.3941 29.3409L20.0344 29.6047C19.7306 29.6686 19.4029 29.8445 19.0512 30.1322C18.6995 30.42 18.4278 30.5878 18.2359 30.6358C18.0601 30.6677 17.8682 30.7317 17.6604 30.8276C17.4526 30.9235 16.6133 31.4671 15.1426 32.4582L14.8309 32.5541C14.2074 32.8419 13.8157 33.0817 13.6559 33.2735C13.496 33.4493 13.3042 33.6012 13.0804 33.7291H12.9845C12.6168 33.7291 12.1852 33.9689 11.6896 34.4485C11.6576 34.5284 11.3059 34.6643 10.6345 34.8561C9.97906 35.032 9.34761 35.3117 8.74013 35.6954C8.35646 35.7913 7.88487 35.9192 7.32535 36.0791C6.76584 36.2389 6.35819 36.3348 6.10241 36.3668L4.42386 36.7265C4.05618 36.7905 3.63254 36.8864 3.15296 37.0143C2.86521 36.9183 2.61742 36.8704 2.4096 36.8704L1.97797 36.9183C1.91403 36.9183 1.81012 36.8624 1.66624 36.7505C1.53835 36.6386 1.3625 36.5267 1.1387 36.4148C0.914891 36.3189 0.802988 36.0471 0.802988 35.5995C0.802988 35.1998 1.24261 34.8082 2.12185 34.4245C3.00109 34.0248 3.57659 33.7451 3.84836 33.5852C3.97625 33.4094 4.19206 33.3055 4.4958 33.2735C4.81552 33.2415 5.08729 33.1456 5.31109 32.9857C5.5349 32.8259 5.8786 32.682 6.3422 32.5541L7.30137 32.0505C7.34933 32.0186 7.3893 32.0026 7.42127 32.0026H7.75698C7.86888 32.0026 8.03674 31.9147 8.26055 31.7388C8.48435 31.563 8.71615 31.4351 8.95595 31.3551H9.2437C9.27567 31.3551 9.32363 31.3152 9.38757 31.2353C9.45152 31.1553 9.59539 31.0514 9.8192 30.9235L9.89114 30.8756H10.1309C10.3068 30.7317 10.5146 30.6118 10.7544 30.5159C10.9942 30.42 11.226 30.2921 11.4498 30.1322L13.3202 29.4128L13.7518 29.4608C13.8477 29.4608 13.9676 29.3888 14.1115 29.245C14.2714 29.0851 14.631 28.9252 15.1906 28.7654C15.2705 28.6375 15.4383 28.4856 15.6941 28.3098C15.9499 28.1339 16.2536 27.8782 16.6053 27.5424L17.1089 27.0868ZM8.74013 33.0817L8.40442 33.0337C8.18062 33.1616 7.95681 33.2335 7.733 33.2495C7.52518 33.2655 7.18947 33.4174 6.72587 33.7051C6.27826 33.9769 5.75871 34.2407 5.16722 34.4964C4.57573 34.7522 4.27998 34.9201 4.27998 35C5.06331 34.9041 5.8786 34.6883 6.72587 34.3526L8.45238 33.873C8.67619 33.809 8.82806 33.7451 8.90799 33.6811C9.0039 33.6172 9.17975 33.5293 9.43553 33.4174L9.8192 33.1296C9.89913 33.0976 10.075 33.0337 10.3467 32.9378C10.6185 32.8419 10.7544 32.7459 10.7544 32.65C10.7544 32.5861 10.7224 32.5541 10.6585 32.5541C10.083 32.5541 9.62737 32.642 9.29166 32.8179C8.95595 32.9937 8.7721 33.0817 8.74013 33.0817ZM38.5943 30.5878L37.4673 31.571C37.4034 31.507 37.3394 31.475 37.2755 31.475C37.1156 31.475 36.9158 31.6189 36.676 31.9067C36.4522 32.1944 36.2923 32.3383 36.1964 32.3383L35.9566 32.2903C35.557 32.5941 35.2692 32.7699 35.0934 32.8179C34.9175 32.8658 34.7017 32.9538 34.4459 33.0817C34.2061 33.2095 33.9823 33.2815 33.7745 33.2975C33.5827 33.3135 33.4228 33.3854 33.2949 33.5133C33.167 33.6252 32.8553 33.6811 32.3597 33.6811L31.9761 33.6332C31.7682 33.7291 31.6324 33.7771 31.5684 33.7771C31.4405 33.7771 31.3046 33.7131 31.1608 33.5852C31.0169 33.4413 30.857 33.3614 30.6812 33.3454C30.5213 33.3294 30.3535 33.2175 30.1776 33.0097C30.0018 32.8019 29.8339 32.658 29.674 32.5781C29.5302 32.4982 29.4103 32.3863 29.3144 32.2424L28.9786 31.9546C28.7069 31.7628 28.4431 31.4111 28.1873 30.8995C27.9316 30.388 27.8037 29.9883 27.8037 29.7006V29.6047L27.8516 29.1491L27.8037 28.6215C27.8676 28.5576 27.9475 28.4217 28.0435 28.2139V27.4465L28.619 25.5282C28.6509 25.4483 28.587 25.3443 28.4271 25.2165C28.2673 25.4562 28.1074 25.6001 27.9475 25.6481C27.7877 25.696 27.6758 25.8079 27.6118 25.9838C27.5639 26.1596 27.4759 26.2476 27.3481 26.2476L27.0603 26.1516C27.0283 26.1836 26.9564 26.3515 26.8445 26.6552C26.7326 26.943 26.5408 27.0868 26.269 27.0868C25.9812 27.0868 25.8374 26.9749 25.8374 26.7511L25.8853 26.3195L25.7414 25.72C25.7414 25.5921 25.8693 25.3443 26.1251 24.9767C26.3809 24.593 26.6127 24.3772 26.8205 24.3292C27.0443 24.2653 27.2282 24.1134 27.372 23.8736C27.5319 23.6178 27.8676 23.3141 28.3792 22.9624C28.6669 22.8985 28.9147 22.6906 29.1225 22.3389C29.3463 22.1631 29.6341 22.0192 29.9858 21.9073C30.3535 21.7954 30.6252 21.6355 30.8011 21.4277C30.9929 21.2039 31.5364 20.8682 32.4317 20.4206C33.3429 19.957 34.0063 19.7252 34.4219 19.7252C34.5498 19.7252 34.7257 19.6932 34.9495 19.6293C35.1733 19.5493 35.3811 19.4854 35.573 19.4374C35.7648 19.3735 35.9646 19.2856 36.1724 19.1737C36.3803 19.0458 36.5481 18.9818 36.676 18.9818L37.3714 19.2216C37.883 19.3655 38.1947 19.4694 38.3066 19.5334C38.3386 19.5653 38.4984 19.6373 38.7862 19.7492C39.0899 19.8451 39.3937 19.981 39.6974 20.1568C40.0171 20.3327 40.177 20.6604 40.177 21.14C39.9052 21.5396 39.7693 21.7554 39.7693 21.7874C39.7693 21.8514 39.9532 21.9473 40.3209 22.0752C40.4487 22.315 40.6406 22.6267 40.8964 23.0104L41.1601 23.8496L41.2081 25.8159L41.1601 26.0078C40.9843 26.1676 40.8964 26.2715 40.8964 26.3195L40.9683 26.7991L40.7765 27.4705C40.7285 27.6783 40.6486 27.8142 40.5367 27.8782C40.4248 27.9421 40.3528 28.022 40.3209 28.1179L40.177 28.3098C40.145 28.3577 40.0731 28.5016 39.9612 28.7414C39.8652 28.9652 39.7533 29.1411 39.6255 29.269C39.4976 29.3968 39.4176 29.5487 39.3857 29.7246C39.3537 29.9004 39.2738 30.0283 39.1459 30.1082C39.018 30.1882 38.9221 30.2761 38.8581 30.372C38.8102 30.4519 38.7222 30.5239 38.5943 30.5878ZM31.1368 31.2113L31.2327 31.7628L31.2807 31.8108H31.6643L31.7842 31.8587C32.104 31.9227 32.3437 31.9546 32.5036 31.9546C32.9992 31.9546 33.3908 31.8347 33.6786 31.5949C33.9823 31.3392 34.2221 31.2113 34.398 31.2113C34.5738 31.2113 34.7177 31.0914 34.8296 30.8516C34.9575 30.6118 35.0374 30.4919 35.0694 30.4919H35.4051L35.501 30.4439C35.501 30.0763 35.6609 29.8125 35.9806 29.6526C36.3163 29.4928 36.5481 29.2849 36.676 29.0292C36.8199 28.7574 36.9797 28.5576 37.1556 28.4297C37.3314 28.2858 37.4513 28.102 37.5153 27.8782L37.7071 27.5904C37.7711 27.5265 37.803 27.4066 37.803 27.2307L38.2586 26.3675C38.3546 25.9678 38.4025 25.6561 38.4025 25.4323C38.4025 25.0966 38.2267 24.8328 37.875 24.6409C37.5393 24.4491 37.3714 24.0734 37.3714 23.5139C37.3714 23.1462 37.5552 22.8105 37.9229 22.5068C38.3066 22.1871 38.4984 21.9952 38.4984 21.9313C38.4984 21.8354 38.4505 21.7874 38.3546 21.7874C38.3066 21.7874 38.1228 21.8514 37.803 21.9792C37.6911 22.2031 37.1236 22.4988 36.1005 22.8665C35.7648 22.7066 35.5809 22.6267 35.549 22.6267C35.4531 22.6267 35.3571 22.7226 35.2612 22.9144C35.1653 23.1063 35.0694 23.2422 34.9735 23.3221H34.6617C34.6298 23.3221 34.5259 23.426 34.35 23.6338C34.1742 23.8416 33.9504 23.9455 33.6786 23.9455L33.3908 24.2333C33.4068 24.4891 33.247 24.7529 32.9113 25.0246L32.6475 25.3363C32.4876 25.5282 32.2798 25.752 32.024 26.0078L31.5924 27.0868C31.4165 27.5025 31.3286 27.8142 31.3286 28.022C31.2807 28.1179 31.1688 28.2219 30.9929 28.3338C30.833 28.4297 30.7531 28.5576 30.7531 28.7174C30.7531 28.7494 30.8091 28.8293 30.921 28.9572C31.0329 29.0851 31.0888 29.181 31.0888 29.245L30.9929 29.5567L30.897 30.4439L31.1368 31.2113ZM46.2198 27.3986V27.2307C46.2198 27.0069 46.2357 26.8311 46.2677 26.7032C46.1718 26.4474 46.1238 26.2156 46.1238 26.0078C46.1238 25.9758 46.2038 25.752 46.3636 25.3363L46.5794 24.593C46.6914 24.3052 46.7553 24.1534 46.7713 24.1374C46.6754 23.8816 46.6274 23.7377 46.6274 23.7058C46.6274 23.3381 46.7313 23.0343 46.9391 22.7945C47.147 22.5547 47.3228 22.219 47.4667 21.7874L47.9463 20.3247L48.7376 18.4063C48.7536 18.3584 48.8255 18.2305 48.9534 18.0227C49.0973 17.8148 49.2092 17.639 49.2891 17.4951C49.385 17.3353 49.5129 17.1115 49.6728 16.8237L49.9126 16.7757C49.9765 16.7118 50.0085 16.6479 50.0085 16.5839C50.0085 16.5519 49.9765 16.424 49.9126 16.2002L50.7518 14.8094L51.2554 13.7783C51.4153 13.5066 51.5911 13.3307 51.783 13.2508C52.1027 12.6593 52.3824 12.2996 52.6222 12.1717C52.7181 11.868 52.894 11.5403 53.1498 11.1886L53.6054 11.1406C53.6853 10.9168 53.7652 10.7489 53.8452 10.637L53.8931 10.1575C53.8931 10.2534 53.9331 10.2294 54.013 10.0855C54.093 9.92566 54.2129 9.63791 54.3727 9.22227L55.0202 8.47891L55.212 8.1432C55.2919 8.03129 55.4198 7.81548 55.5957 7.49576C55.8355 7.39984 56.0353 7.22399 56.1951 6.96821L56.6987 6.56056C56.6667 6.38472 56.8586 5.99306 57.2742 5.38558C57.546 5.27368 57.7938 5.1298 58.0176 4.95395L58.3533 4.85804C58.3533 4.29852 58.5531 3.91485 58.9528 3.70703L59.2405 3.5152C59.4963 3.38731 59.6402 3.32336 59.6721 3.32336L59.84 3.2754C60.0318 3.21146 60.2556 3.17949 60.5114 3.17949C61.1029 3.17949 61.6384 3.40329 62.118 3.85091C62.5976 4.28253 62.8374 4.7781 62.8374 5.33762C62.8374 5.56143 62.7175 5.79323 62.4777 6.03302L62.3818 6.22485C62.158 7.1041 61.9981 7.54372 61.9022 7.54372C61.8383 7.54372 61.7503 7.59167 61.6384 7.68759C61.6065 8.21514 61.5745 8.51088 61.5425 8.57483C61.2548 8.62278 61.1109 8.98247 61.1109 9.65389C61.0789 9.74981 60.959 9.91767 60.7512 10.1575C60.5594 10.3813 60.4075 10.701 60.2956 11.1166C60.1837 11.5163 60.0638 11.7161 59.9359 11.7161H59.6721L59.7441 12.0758C59.7441 12.2996 59.6322 12.5234 59.4084 12.7472C59.2005 12.955 59.0727 13.1788 59.0247 13.4186C58.9767 13.6584 58.7849 13.9462 58.4492 14.2819L58.2094 14.6656C58.1135 14.8254 57.9856 14.9933 57.8257 15.1691C57.6659 15.345 57.53 15.6167 57.4181 15.9844L56.7946 17.1354C56.363 17.9188 56.0353 18.2944 55.8115 18.2625C55.6676 18.8859 55.5717 19.2456 55.5237 19.3415C55.4758 19.4374 55.3639 19.5254 55.188 19.6053C55.0122 19.6852 54.8763 19.8291 54.7804 20.0369C54.6844 20.2288 54.5805 20.3726 54.4686 20.4686L54.037 21.3558C53.7812 21.4677 53.5974 21.6755 53.4855 21.9792C53.2297 22.0432 53.0698 22.259 53.0059 22.6267C52.942 22.6906 52.862 22.8345 52.7661 23.0583L51.9268 23.8976C51.4952 24.2013 51.2634 24.553 51.2314 24.9527C51.1995 25.3363 50.9916 25.5282 50.608 25.5282C50.3362 25.5282 49.9365 25.4083 49.409 25.1685H49.361C49.3131 25.3923 49.2012 25.6401 49.0253 25.9119L49.1213 26.5593C49.1213 26.6392 48.9934 27.1428 48.7376 28.07C48.8655 28.3098 48.9294 28.4776 48.9294 28.5736L48.8815 29.1011L49.0014 29.7485C49.0813 30.2761 49.2731 30.5399 49.5769 30.5399L50.1524 30.6358C50.1843 30.6358 50.3842 30.5159 50.7518 30.2761L51.6391 29.7965C51.6711 29.7965 51.687 29.8125 51.687 29.8445C51.8469 29.9084 51.9748 29.9404 52.0707 29.9404C52.2306 29.9404 52.3105 29.8125 52.3105 29.5567V29.245C52.4064 29.0851 52.5183 28.9892 52.6462 28.9572C52.7901 28.9252 52.918 28.8533 53.0299 28.7414C53.1418 28.6295 53.2297 28.5736 53.2936 28.5736H53.5334C53.7732 28.5736 53.8931 28.2938 53.8931 27.7343C53.9571 27.7023 54.037 27.6384 54.1329 27.5424H54.4207C54.5486 27.5424 54.6844 27.3906 54.8283 27.0868C54.9882 26.7671 55.1001 26.5753 55.164 26.5113C55.4518 26.4794 55.6516 26.4314 55.7635 26.3675C56.2751 25.4403 56.6667 24.9767 56.9385 24.9767H57.0824C57.3541 24.7209 57.498 24.4971 57.514 24.3052C57.546 24.0974 57.6259 23.9615 57.7538 23.8976C57.8977 23.8336 58.0256 23.7537 58.1375 23.6578C58.2494 23.5619 58.3213 23.5139 58.3533 23.5139C58.5931 23.5139 58.713 23.6018 58.713 23.7777L58.641 24.4491L58.8089 25.1685C58.8089 25.2324 58.7369 25.3603 58.5931 25.5522C58.4652 25.728 58.4012 25.9278 58.4012 26.1516C58.4012 26.6152 58.3213 26.863 58.1614 26.895C58.0016 26.927 57.8657 27.0389 57.7538 27.2307C57.6579 27.4066 57.49 27.5744 57.2502 27.7343C57.0104 27.8782 56.8266 28.094 56.6987 28.3817L56.2911 28.4776L56.0513 28.6215C55.8594 29.1171 55.6516 29.4208 55.4278 29.5327C55.22 29.6446 54.9562 29.9803 54.6365 30.5399C54.5885 30.5399 54.5646 30.5558 54.5646 30.5878L54.1809 30.5399C54.037 30.7956 53.8931 30.9475 53.7493 30.9955C53.6054 31.0434 53.4855 31.1393 53.3896 31.2832C53.2936 31.4111 53.1178 31.523 52.862 31.6189C52.6222 31.7148 52.4704 31.8267 52.4064 31.9546C52.3425 32.0825 52.2466 32.1545 52.1187 32.1704C51.9908 32.1864 51.8709 32.2504 51.759 32.3623C51.6471 32.4582 51.5512 32.5062 51.4712 32.5062C51.4393 32.5062 51.3273 32.4902 51.1355 32.4582H51.0396C50.7678 32.65 50.544 32.7459 50.3682 32.7459C50.1604 32.7459 50.0085 32.7779 49.9126 32.8419C49.8167 32.7779 49.6648 32.73 49.457 32.698C49.2651 32.666 49.0413 32.5861 48.7855 32.4582C48.5138 32.5221 48.3459 32.5541 48.282 32.5541C48.0102 32.5541 47.6665 32.2903 47.2509 31.7628C46.8352 31.2193 46.6274 30.6917 46.6274 30.1802C46.6274 30.1642 46.5315 30.0443 46.3397 29.8205C46.1638 29.5807 46.0759 29.3249 46.0759 29.0531V28.8133L46.1238 28.5256V28.07L46.1718 27.9261C46.4116 27.8941 46.5315 27.8622 46.5315 27.8302L46.2198 27.3986ZM51.0876 21.0441L51.5911 20.7563C51.6551 20.5005 51.8629 20.1968 52.2146 19.8451C52.5663 19.4774 52.8141 19.2936 52.9579 19.2936H53.1498C53.1498 19.1817 53.1738 19.0698 53.2217 18.9579C53.2697 18.846 53.2936 18.6941 53.2936 18.5023C53.2936 18.4063 53.5095 18.1426 53.9411 17.7109L54.1329 17.2793C54.2768 16.8637 54.6365 16.52 55.212 16.2482C55.4358 15.7846 55.6037 15.5528 55.7156 15.5528L55.9074 15.5048C55.9713 15.265 56.0992 15.0492 56.2911 14.8574L56.387 14.7135V14.3299C56.387 14.2979 56.4909 14.17 56.6987 13.9462C56.9225 13.7064 57.0824 13.4906 57.1783 13.2987C57.2742 13.0909 57.4021 12.9311 57.562 12.8192C57.7378 12.7073 57.8577 12.5074 57.9217 12.2197L58.3053 12.1717C58.3053 11.9639 58.3213 11.828 58.3533 11.7641L58.4012 11.5243C58.4812 11.3324 58.7609 10.8289 59.2405 10.0136L59.6242 9.12635C59.6242 9.03043 59.6881 8.91853 59.816 8.79064C59.9599 8.64676 60.0318 8.44694 60.0318 8.19116L60.2237 7.39984C60.2237 7.03216 60.1597 6.84832 60.0318 6.84832C59.872 6.96022 59.7201 7.04015 59.5762 7.08811C59.4483 7.13607 59.3204 7.42382 59.1926 7.95136C58.713 8.06327 58.4332 8.29507 58.3533 8.64676C58.2893 8.98247 58.0975 9.27022 57.7778 9.51002L57.6099 9.79777C57.5779 9.97362 57.4261 10.1575 57.1543 10.3493C56.8825 10.5411 56.6268 10.8688 56.387 11.3324C55.5877 12.4355 55.148 13.027 55.0681 13.1069L54.8283 13.3947L54.4686 13.3467C54.5326 13.6025 54.5646 13.7464 54.5646 13.7783C54.5646 13.8742 54.5166 13.9702 54.4207 14.0661C54.3248 14.146 54.2528 14.2499 54.2049 14.3778C54.1569 14.5057 54.061 14.6576 53.9171 14.8334C53.7732 14.9933 53.6374 15.265 53.5095 15.6487C53.3976 16.0164 53.2936 16.2322 53.1977 16.2962L52.862 16.2482C52.6542 16.3761 52.5503 16.504 52.5503 16.6319L52.6222 16.9676C52.6222 17.0315 52.5743 17.1115 52.4784 17.2074C52.3984 17.2873 52.3185 17.4552 52.2386 17.7109C52.1586 17.9667 51.9588 18.3584 51.6391 18.8859C51.3194 19.3975 51.0636 19.949 50.8717 20.5405C50.6959 21.116 50.52 21.4837 50.3442 21.6435C50.3762 21.6755 50.4241 21.6915 50.4881 21.6915C50.6959 21.6915 50.8957 21.4757 51.0876 21.0441ZM75.1388 26.895L75.5224 26.5593C75.7622 26.5593 75.9061 26.4554 75.9541 26.2476C76.002 26.0238 76.1699 25.8479 76.4576 25.72C76.7614 25.5921 77.0411 25.3363 77.2969 24.9527C77.5527 24.553 77.8165 24.3532 78.0882 24.3532C78.1841 24.3532 78.2961 24.4331 78.4239 24.593C78.5518 24.7529 78.6158 24.8807 78.6158 24.9767C78.6158 25.5042 78.4559 26.0477 78.1362 26.6072L78.0403 27.2787L77.8724 27.5904C77.6326 27.7183 77.4728 27.8542 77.3928 27.998C77.3289 28.1419 77.145 28.3178 76.8413 28.5256L76.6015 28.8613C76.2498 28.9732 76.01 29.157 75.8821 29.4128C75.7702 29.6686 75.6024 29.8125 75.3786 29.8445C75.1708 29.8764 74.939 30.0363 74.6832 30.324C74.5233 30.404 74.3315 30.4759 74.1077 30.5399L74.0597 30.7796C73.8998 30.9395 73.6441 31.0674 73.2924 31.1633C72.9567 31.2592 72.7009 31.3551 72.525 31.4511C72.3652 31.531 72.2533 31.571 72.1893 31.571C71.8856 31.571 71.6058 31.515 71.3501 31.4031C71.0943 31.2752 70.8305 31.1953 70.5587 31.1633C70.4628 31.0674 70.4069 30.9635 70.3909 30.8516C70.3749 30.7397 70.295 30.5958 70.1511 30.42C70.0072 30.2281 69.9353 29.9723 69.9353 29.6526L70.0312 29.197C70.0312 29.1331 69.9912 29.0531 69.9113 28.9572C69.8314 28.8613 69.7914 28.7814 69.7914 28.7174C69.7914 28.6535 69.8074 28.6055 69.8394 28.5736C69.8713 28.5416 69.8873 28.4936 69.8873 28.4297C69.8873 28.3497 69.8713 28.2618 69.8394 28.1659C69.8074 28.07 69.7914 27.9901 69.7914 27.9261L69.9353 26.7511C69.9353 26.6552 69.9033 26.6072 69.8394 26.6072C69.7754 26.6072 69.6555 26.6872 69.4797 26.847C69.3198 27.0069 69.128 27.0868 68.9042 27.0868C68.7763 27.1828 68.6724 27.3826 68.5924 27.6863C68.4645 27.8462 68.3047 27.9901 68.1128 28.1179L68.0169 28.2618C67.985 28.3737 67.8651 28.4696 67.6572 28.5496C67.4494 28.6135 67.3055 28.7014 67.2256 28.8133L66.9858 29.0531L66.5302 29.0052C66.4982 29.0372 66.4103 29.181 66.2664 29.4368C66.1226 29.6766 65.9387 29.8764 65.7149 30.0363L63.8925 31.523C63.7007 31.6509 63.4209 31.8108 63.0532 32.0026L62.9093 32.1465C61.6304 32.9937 60.7272 33.4174 60.1997 33.4174C59.7681 33.4174 59.2645 33.2975 58.689 33.0577C58.1135 32.8179 57.8018 32.5301 57.7538 32.1944L57.514 31.2113C57.3701 30.9875 57.2982 30.6757 57.2982 30.2761C57.2982 30.0842 57.3142 29.9564 57.3461 29.8924V29.7485L57.2982 28.9572C57.2982 28.7654 57.4501 28.6695 57.7538 28.6695L57.7058 28.022C57.7058 27.9581 57.8417 27.7103 58.1135 27.2787C58.4012 26.8311 58.5931 26.5753 58.689 26.5113L58.9288 26.1996C58.9128 26.0078 59.0247 25.8079 59.2645 25.6001C59.5043 25.3763 59.6961 25.1525 59.84 24.9287C59.9839 24.7049 60.2556 24.4571 60.6553 24.1853L61.3747 23.466C61.9342 22.9064 62.5417 22.4588 63.1971 22.1231C63.293 22.0912 63.4848 21.9313 63.7726 21.6435C64.0763 21.3558 64.412 21.148 64.7797 21.0201C65.1634 20.8762 65.5311 20.7004 65.8828 20.4925C66.2505 20.2847 66.5382 20.1808 66.746 20.1808H66.9379C67.0018 20.1808 67.4254 19.981 68.2088 19.5813H68.3526C68.4166 19.5813 68.5685 19.6453 68.8082 19.7732H68.8562L69.2399 19.5813C69.3038 19.5493 69.3837 19.5334 69.4797 19.5334C70.4708 19.5334 71.0143 20.2208 71.1103 21.5956C71.1422 21.8833 71.2222 22.0272 71.3501 22.0272C71.5099 22.0272 71.7337 21.7395 72.0215 21.164C72.3252 20.5725 72.9567 20.2767 73.9158 20.2767C74.6032 20.2767 74.9469 20.7163 74.9469 21.5956C74.9469 22.6347 74.4833 23.6178 73.5561 24.545C73.4922 24.6729 73.4442 24.8168 73.4123 24.9767L73.0766 25.9598V26.0078C73.0766 26.1037 73.0046 26.2396 72.8607 26.4154C72.7329 26.5753 72.6689 26.7192 72.6689 26.847L72.7169 27.4465L72.621 28.1179C72.621 28.4217 72.6769 28.6215 72.7888 28.7174C73.3004 28.5895 73.668 28.3817 73.8919 28.094C74.1316 27.7902 74.2995 27.6224 74.3954 27.5904L74.6352 27.4945C74.7791 27.2547 74.9469 27.0549 75.1388 26.895ZM67.1777 26.895C67.2416 26.5433 67.4334 26.2795 67.7532 26.1037C68.0889 25.9119 68.2887 25.72 68.3526 25.5282C68.6564 25.3044 69.088 24.9047 69.6475 24.3292C70.223 23.7537 70.5108 23.402 70.5108 23.2741C70.5108 23.2262 70.4788 23.2022 70.4149 23.2022H70.3669L70.1751 23.3221L69.7434 23.2741L69.2878 23.3221L68.9521 23.1542L68.6404 23.2022L68.1608 23.1063C67.905 23.1063 67.6812 23.1622 67.4894 23.2741C67.3135 23.37 66.9618 23.4819 66.4343 23.6098C65.9227 23.7377 65.4591 23.9615 65.0435 24.2813C64.6279 24.585 64.3241 24.7369 64.1323 24.7369C64.0204 24.9767 63.6447 25.3204 63.0053 25.768C62.6216 25.8959 62.3738 26.1756 62.2619 26.6072C61.8463 26.943 61.6384 27.1348 61.6384 27.1828L61.4706 27.5904C61.3427 27.7023 61.1828 27.7982 60.991 27.8782C60.7992 27.9421 60.6873 28.11 60.6553 28.3817C60.6233 28.6375 60.5114 28.8773 60.3196 29.1011C60.1437 29.3089 60.0558 29.4768 60.0558 29.6047C60.0558 30.388 60.2077 30.7796 60.5114 30.7796C60.6393 30.7796 60.9031 30.6997 61.3027 30.5399C61.7184 30.364 61.9582 30.2441 62.0221 30.1802C62.0861 30.1162 62.2139 30.0523 62.4058 29.9883L62.8614 29.7485C62.9253 29.6846 62.9973 29.6446 63.0772 29.6286C63.1571 29.6127 63.2371 29.5647 63.317 29.4848C63.3969 29.3888 63.5408 29.2929 63.7486 29.197C63.9564 29.0851 64.1163 28.9412 64.2282 28.7654C64.5 28.6055 64.9396 28.3577 65.5471 28.022L66.0506 27.6384C66.4023 27.4785 66.6181 27.3426 66.6981 27.2307C66.778 27.1188 66.9379 27.0069 67.1777 26.895ZM82.5244 21.4517L82.8841 21.3558L83.028 21.0441C83.8113 20.5805 84.3708 20.1408 84.7065 19.7252C84.7385 19.6612 84.8104 19.5973 84.9223 19.5334C85.0342 19.4694 85.1541 19.3575 85.282 19.1976C85.8735 18.6062 86.5769 18.3104 87.3922 18.3104C88.3514 18.3104 88.8629 18.8939 88.9269 20.0609L89.0707 20.4206C89.1986 20.6444 89.3745 21.1 89.5983 21.7874C89.8381 22.4748 89.958 22.8985 89.958 23.0583C89.958 23.4899 89.8221 23.9216 89.5503 24.3532C89.3265 24.4651 88.791 25.0646 87.9437 26.1516L87.7039 26.3195C87.576 26.6072 87.4082 26.895 87.2004 27.1828C86.8806 27.2947 86.7208 27.4146 86.7208 27.5424V27.9741C86.7208 28.006 86.6808 28.07 86.6009 28.1659C86.5369 28.2618 86.441 28.4457 86.3131 28.7174L86.1213 29.0052C86.0573 29.0691 85.9934 29.205 85.9295 29.4128C85.8655 29.6047 85.7696 29.7805 85.6417 29.9404C85.5298 30.1002 85.4738 30.2281 85.4738 30.324C85.4738 30.5638 85.7856 30.6837 86.409 30.6837C86.441 30.6837 86.5609 30.6358 86.7687 30.5399L87.1044 30.6358C87.1364 30.6358 87.2163 30.5878 87.3442 30.4919C87.4721 30.38 87.664 30.2921 87.9197 30.2281C88.1915 30.1642 88.4233 30.0683 88.6151 29.9404C88.823 29.8125 89.0627 29.7006 89.3345 29.6047C89.6223 29.5087 89.894 29.3569 90.1498 29.1491C90.4056 28.9252 90.6534 28.7654 90.8932 28.6695C91.1489 28.5736 91.3807 28.4297 91.5886 28.2378C91.8124 28.03 92.0602 27.8382 92.3319 27.6623C92.6037 27.4865 93.0353 27.1028 93.6268 26.5113C94.0105 26.2076 94.2742 26.0397 94.4181 26.0078C94.4501 26.0078 94.586 25.7999 94.8258 25.3843C95.0815 24.9527 95.3693 24.7369 95.689 24.7369C96.0247 24.7369 96.1926 24.8967 96.1926 25.2165C96.1926 25.3923 96.1127 25.5602 95.9528 25.72V25.8639L96.0008 26.2476C96.0327 26.2955 96.0487 26.3675 96.0487 26.4634C96.0487 26.5273 95.9848 26.6232 95.8569 26.7511C95.745 26.879 95.665 27.0469 95.6171 27.2547C95.5691 27.4465 95.4173 27.5744 95.1615 27.6384C95.0656 27.9901 94.9377 28.1899 94.7778 28.2378C94.6339 28.2858 94.4261 28.4457 94.1543 28.7174C93.8826 28.9892 93.4989 29.3089 93.0033 29.6766C92.5078 30.0443 92.1641 30.332 91.9722 30.5399C91.7964 30.7317 91.6765 30.8276 91.6125 30.8276C91.5806 30.8276 91.5166 30.7956 91.4207 30.7317C91.3248 30.6677 91.2608 30.6358 91.2289 30.6358C91.133 30.6358 91.069 30.7477 91.037 30.9715L90.9411 31.2113C90.7333 31.3392 90.6134 31.4031 90.5814 31.4031L90.4376 31.3551H90.3416C90.1498 31.3551 90.0539 31.4271 90.0539 31.571L90.1978 31.8108V31.8587C90.1978 32.0825 90.0699 32.1944 89.8141 32.1944C89.6383 32.1944 89.1267 32.4902 88.2794 33.0817L87.584 33.2255L87.0085 33.5373C86.8167 33.4254 86.6968 33.3694 86.6488 33.3694L86.2652 33.4893L85.5698 33.5373C85.5538 33.5373 85.258 33.3774 84.6825 33.0577C84.123 32.738 83.7873 32.4182 83.6754 32.0985C83.5635 31.7788 83.4196 31.4591 83.2438 31.1393C83.0679 30.8036 82.98 30.5718 82.98 30.4439C82.98 29.6766 83.0439 29.1331 83.1718 28.8133C83.2997 28.4776 83.3797 28.2298 83.4116 28.07C83.4436 27.9101 83.5315 27.7423 83.6754 27.5664C83.8353 27.3746 83.9632 27.0708 84.0591 26.6552C84.5227 25.728 84.8424 25.1605 85.0182 24.9527C85.1941 24.7449 85.33 24.4891 85.4259 24.1853L85.7376 23.7537C85.7696 23.7217 85.8176 23.6018 85.8815 23.394C85.9454 23.1702 86.0254 23.0423 86.1213 23.0104C86.2492 22.7865 86.3131 22.6427 86.3131 22.5787C86.3131 22.1151 86.1053 21.8833 85.6897 21.8833C85.6097 21.8833 85.5218 21.9713 85.4259 22.1471C85.33 22.307 85.1062 22.4668 84.7545 22.6267C84.4188 22.7865 84.2109 22.9064 84.131 22.9864C84.0511 23.0663 83.8752 23.1702 83.6035 23.2981C83.3477 23.41 83.1239 23.5939 82.932 23.8496L82.5244 24.0415C82.3965 24.3452 82.2846 24.5131 82.1887 24.545C82.0928 24.577 81.797 24.6569 81.3015 24.7848C81.2695 24.8008 81.1895 24.8967 81.0617 25.0726C80.9338 25.2484 80.7499 25.3363 80.5101 25.3363C80.3183 25.5282 80.1265 25.752 79.9346 26.0078C79.8707 26.0078 79.7028 26.0717 79.4311 26.1996L78.9515 26.3195C78.8236 26.4154 78.6797 26.5673 78.5199 26.7751C78.376 26.9829 78.0962 27.0868 77.6806 27.0868C77.4408 27.0868 77.3209 26.895 77.3209 26.5113C77.3209 25.728 77.5927 25.1045 78.1362 24.6409C78.6957 24.1773 79.1033 23.9296 79.3591 23.8976C79.6149 23.8656 79.7748 23.7697 79.8387 23.6098C79.9027 23.45 80.0545 23.3221 80.2943 23.2262C80.5501 23.1143 80.8379 22.8825 81.1576 22.5308C81.4933 22.1631 81.853 21.9153 82.2366 21.7874L82.5244 21.4517ZM111.228 4.16264L111.539 4.06672C111.763 4.06672 112.003 3.93084 112.259 3.65907C112.323 3.65907 112.411 3.6271 112.522 3.56315H112.906C113.146 3.32336 113.41 3.19547 113.697 3.17949C113.985 3.14751 114.329 3.08357 114.729 2.98765C115.144 2.89173 115.456 2.83578 115.664 2.8198C115.888 2.80381 116.055 2.77184 116.167 2.72388C116.279 2.65993 116.351 2.62796 116.383 2.62796L116.983 2.72388C117.414 2.72388 117.71 2.8118 117.87 2.98765C118.03 3.14751 118.317 3.38731 118.733 3.70703C119.165 4.01077 119.381 4.68219 119.381 5.72129V5.76925L119.285 6.32077L119.333 6.70444C119.333 6.80036 119.269 6.92025 119.141 7.06413L119.045 7.35188C119.045 7.67161 118.941 7.98334 118.733 8.28707C118.541 8.57483 118.429 8.8386 118.397 9.07839L118.11 9.46206L117.726 10.3973L117.127 11.1886L116.695 12.0758L116.191 12.6513L116.143 12.7952C116.031 13.0989 115.872 13.2508 115.664 13.2508V13.6824C115.664 13.8423 115.552 14.106 115.328 14.4737C115.12 14.8254 115 15.1052 114.968 15.313L114.729 15.7446C114.888 15.8725 115.08 15.9365 115.304 15.9365C115.352 15.9365 115.552 15.8565 115.904 15.6967C116.255 15.5368 116.535 15.4569 116.743 15.4569L118.997 15.0013C119.045 15.0013 119.141 15.0572 119.285 15.1691C119.381 14.9933 119.445 14.9054 119.476 14.9054L120.076 14.6656C120.3 14.7295 120.428 14.7615 120.46 14.7615C120.987 14.7615 121.563 14.6336 122.186 14.3778C123.193 14.106 124.176 13.9702 125.136 13.9702L127.102 13.5385C127.214 13.4106 127.31 13.1948 127.39 12.8911C127.486 12.5714 127.613 12.3636 127.773 12.2676C127.949 12.1717 128.069 12.0438 128.133 11.884C128.197 11.7081 128.309 11.5083 128.469 11.2845L128.709 10.637L129.308 9.55798L129.452 9.03043C129.516 8.82261 129.748 8.49489 130.147 8.04728V7.90341C130.147 7.56769 130.291 7.3359 130.579 7.20801L130.627 7.11209V6.46465C130.627 6.25683 130.811 6.11295 131.178 6.03302L131.37 5.72129L131.322 4.95395C131.322 4.7781 131.386 4.62624 131.514 4.49835C131.642 4.37046 131.714 4.24257 131.73 4.11468C131.746 3.98679 131.826 3.77097 131.97 3.46724L132.066 2.93969C132.066 2.84378 132.09 2.75585 132.138 2.67592C132.186 2.58 132.209 2.37218 132.209 2.05246C132.209 0.965398 132.713 0.421867 133.72 0.421867C134.024 0.421867 134.368 0.629688 134.751 1.04533C135.151 1.44498 135.351 1.79668 135.351 2.10042C135.351 3.0436 135.271 3.69904 135.111 4.06672C135.079 4.13066 135.007 4.3225 134.895 4.64222C134.799 4.94596 134.511 5.50548 134.032 6.32077L133.768 6.7524H133.432L133.384 6.80036L133.48 7.4478L133.241 7.68759V7.99932C133.177 8.06327 133.121 8.16718 133.073 8.31105C133.025 8.45493 132.905 8.63877 132.713 8.86258C132.537 9.0704 132.449 9.20628 132.449 9.27022V9.55798L132.353 9.74981C132.05 10.3733 131.89 10.7569 131.874 10.9008C131.858 11.0287 131.77 11.1886 131.61 11.3804C131.61 11.6362 131.434 11.9479 131.082 12.3156C131.114 12.3476 131.13 12.3795 131.13 12.4115L130.939 13.1069C131.003 13.1389 131.666 13.1549 132.929 13.1549L133.384 13.1069L134.344 13.2987C134.456 13.2987 134.575 13.3147 134.703 13.3467L134.799 13.6345C135.295 13.6664 135.543 13.8503 135.543 14.186C135.543 14.6975 135.359 15.1531 134.991 15.5528C134.623 15.9525 134.2 16.1523 133.72 16.1523C133.592 16.1523 133.44 16.0963 133.265 15.9844C133.089 15.8565 132.945 15.7926 132.833 15.7926L132.209 15.8885L131.61 15.6967L131.226 15.7446L130.867 15.6967L130.483 15.7446L130.195 15.6967C130.003 15.6967 129.804 15.7766 129.596 15.9365H129.164C129.132 15.9365 128.892 16.4081 128.445 17.3512C127.997 18.2784 127.677 18.9738 127.486 19.4374C127.454 19.5014 127.342 19.5813 127.15 19.6772C127.022 20.2368 126.774 20.5645 126.406 20.6604L126.454 20.9961C126.359 21.2039 126.303 21.4037 126.287 21.5956C126.271 21.7874 126.127 21.9872 125.855 22.1951C125.599 22.3869 125.447 22.6746 125.399 23.0583C125.351 23.442 125.224 23.8736 125.016 24.3532C124.808 24.8328 124.664 25.1205 124.584 25.2165C124.52 25.2964 124.384 25.4882 124.176 25.792C123.985 26.0797 123.801 26.2955 123.625 26.4394C123.449 26.5833 123.361 26.6872 123.361 26.7511L123.505 27.0868C123.425 27.6464 123.265 27.9261 123.025 27.9261V28.2139C123.025 28.3897 122.842 28.5576 122.474 28.7174C122.57 28.9093 122.618 29.0372 122.618 29.1011C122.618 29.3729 122.554 29.5727 122.426 29.7006C122.202 29.7325 122.09 29.7965 122.09 29.8924L122.234 30.1802C122.266 30.2121 122.282 30.2761 122.282 30.372C122.282 30.4519 122.202 30.8516 122.042 31.571C122.362 31.7788 122.522 32.0026 122.522 32.2424L122.474 32.5541C122.714 32.7779 122.834 32.9058 122.834 32.9378L122.666 33.4893C122.618 33.6971 122.474 33.873 122.234 34.0168C121.994 34.1447 121.651 34.2087 121.203 34.2087C120.803 34.2087 120.532 34.1527 120.388 34.0408C120.244 33.9289 120.06 33.817 119.836 33.7051C119.628 33.5932 119.508 33.4813 119.476 33.3694C119.445 33.2415 119.317 33.0337 119.093 32.7459C118.869 32.4422 118.757 32.0505 118.757 31.571V31.2592L118.709 30.5878V30.372L118.853 29.3409L118.757 28.4776C118.757 28.4137 118.789 28.3258 118.853 28.2139C118.917 28.086 118.965 27.9741 118.997 27.8782C118.837 27.2227 118.757 26.8311 118.757 26.7032L118.11 24.3052C118.094 24.2253 118.19 24.0575 118.397 23.8017C117.886 23.7058 117.59 23.5779 117.51 23.418C117.446 23.2422 117.382 23.1303 117.318 23.0823C117.254 23.0343 117.19 22.9464 117.127 22.8185L114.177 21.4037C114.161 21.3878 114.113 21.3158 114.033 21.1879C113.969 21.06 113.817 20.9801 113.578 20.9481C113.354 20.9162 113.21 20.8682 113.146 20.8043L112.906 20.6124L111.827 20.5165L111.324 20.8043C111.324 20.9322 111.22 21.124 111.012 21.3798C110.82 21.6355 110.612 22.0512 110.388 22.6267C110.244 23.0104 110.069 23.2022 109.861 23.2022L109.765 23.418V23.9935C109.765 24.1534 109.677 24.2893 109.501 24.4012C109.341 24.4971 109.197 24.593 109.069 24.6889C109.101 24.7209 109.133 24.8168 109.165 24.9767V25.0726L108.974 25.4323C108.942 25.4642 108.91 25.6081 108.878 25.8639C108.846 26.1197 108.63 26.3994 108.23 26.7032L107.894 27.0868V27.5904L107.583 28.4776C107.375 29.165 107.151 29.6846 106.911 30.0363C106.719 30.0683 106.624 30.1482 106.624 30.2761L106.719 30.5878C106.751 30.6198 106.767 30.6677 106.767 30.7317C106.767 31.0194 106.632 31.1713 106.36 31.1873C106.104 31.2033 105.96 31.2752 105.928 31.4031C106.072 31.8667 106.144 32.1065 106.144 32.1225C106.144 32.2664 106.008 32.3943 105.736 32.5062H105.688L105.832 33.4174C105.465 33.7691 105.281 34.0648 105.281 34.3046C105.329 34.3366 105.369 34.4565 105.401 34.6643V34.8561C105.401 35.4796 105.137 35.7913 104.609 35.7913C104.402 35.7913 103.962 35.4156 103.29 34.6643C102.635 33.9129 102.307 33.1376 102.307 32.3383L102.475 31.1873C102.587 30.356 102.707 29.8524 102.835 29.6766C102.963 29.5008 103.075 29.2769 103.171 29.0052C103.282 28.7174 103.378 28.5336 103.458 28.4537C103.538 28.3577 103.626 28.2139 103.722 28.022L103.962 27.6384L104.058 27.2307L104.25 26.7991C104.617 26.2076 104.785 25.8959 104.753 25.8639C104.753 25.704 104.865 25.5202 105.089 25.3124C105.329 25.1045 105.449 24.8408 105.449 24.5211C105.449 24.2333 105.656 23.8816 106.072 23.466L106.216 23.2022C106.951 21.6995 107.463 20.8522 107.751 20.6604C107.623 20.2927 107.511 20.1089 107.415 20.1089C107.335 20.1089 107.231 20.1328 107.103 20.1808C106.975 20.2128 106.855 20.2288 106.743 20.2288C106.632 20.2288 106.488 20.2527 106.312 20.3007C106.152 20.3487 105.896 20.3726 105.545 20.3726C105.417 20.3726 105.233 20.4046 104.993 20.4686H104.945C104.881 20.4686 104.753 20.4126 104.561 20.3007C104.386 20.1728 104.298 20.0929 104.298 20.0609C104.298 19.7092 104.577 19.3335 105.137 18.9339C105.712 18.5342 106.4 18.2225 107.199 17.9987C107.343 17.9987 107.527 17.8948 107.751 17.687C107.974 17.4791 108.334 17.3752 108.83 17.3752L109.165 17.1834L109.405 17.2313C109.773 16.7677 110.069 16.3361 110.292 15.9365V15.6487C110.292 15.5848 110.46 15.353 110.796 14.9533C111.148 14.5377 111.34 14.2979 111.371 14.2339V13.8263C111.659 13.5226 111.867 13.1948 111.995 12.8431C112.123 12.4755 112.411 12.0678 112.858 11.6202L113.194 10.9248C113.562 10.2374 113.913 9.65389 114.249 9.17431C114.601 8.67874 114.84 8.23112 114.968 7.83147L115.352 7.35188L115.616 6.65648C115.92 5.96908 116.143 5.54544 116.287 5.38558C116.255 4.89001 116.159 4.64222 115.999 4.64222L114.177 5.00191L113.745 4.95395C113.378 5.14579 113.026 5.26568 112.69 5.31364C112.371 5.3616 112.003 5.56942 111.587 5.9371L111.084 5.86517C110.972 5.86517 110.828 5.92911 110.652 6.057C110.492 6.18489 110.045 6.36873 109.309 6.60852C109.245 6.83233 109.181 6.96821 109.117 7.01617H108.59L107.799 7.68759C107.335 7.95936 106.999 8.19116 106.791 8.38299C106.584 8.57483 106.408 8.67074 106.264 8.67074C105.992 8.67074 105.425 9.39012 104.561 10.8289L104.25 11.0447L104.01 11.4284C103.898 11.4603 103.738 11.4923 103.53 11.5243C103.227 11.86 102.979 12.0278 102.787 12.0278C102.643 12.0278 102.339 11.9079 101.876 11.6682C101.428 11.4124 101.204 10.9568 101.204 10.3013C101.204 9.58196 102.259 8.69472 104.37 7.63963L104.945 7.25596C105.105 7.22399 105.337 7.19202 105.64 7.16005C106.12 6.74441 106.592 6.44067 107.055 6.24883C107.519 6.04101 107.855 5.85717 108.062 5.69731C108.27 5.52146 108.622 5.3616 109.117 5.21772C109.613 5.07385 109.941 4.898 110.101 4.69018C110.26 4.46637 110.356 4.35447 110.388 4.35447L110.892 4.40243L111.228 4.16264ZM116.143 20.7563L116.479 21.0441C116.543 21.0121 116.615 20.9961 116.695 20.9961C116.951 20.9961 117.414 21.2199 118.086 21.6675C118.757 22.0991 119.141 22.4109 119.237 22.6027C119.333 22.7786 119.468 23.0343 119.644 23.37C119.836 23.6898 120.004 24.0974 120.148 24.593C120.292 25.0886 120.428 25.4003 120.556 25.5282C120.667 25.3204 120.771 25.0726 120.867 24.7848L121.755 22.7226C121.755 22.6906 121.834 22.5787 121.994 22.3869L122.186 22.0272L122.426 21.9792C122.394 21.9153 122.378 21.8194 122.378 21.6915C122.378 21.4997 122.578 21.2039 122.977 20.8043L123.217 20.0609L123.817 19.2936C123.881 19.0058 124.009 18.7021 124.2 18.3824C124.392 18.0626 124.504 17.9028 124.536 17.9028L124.728 17.8069C124.84 17.2154 124.992 16.8237 125.184 16.6319L125.232 16.488C125.168 16.52 125.12 16.5359 125.088 16.5359C125.056 16.504 124.96 16.472 124.8 16.44H124.68C124.52 16.44 124.312 16.488 124.057 16.5839H123.817C123.785 16.5839 123.697 16.5519 123.553 16.488H123.457L122.786 16.7757H122.714L122.474 16.5839C122.282 16.6159 122.09 16.6319 121.898 16.6319C121.834 16.6319 121.675 16.6798 121.419 16.7757C121.179 16.8717 120.947 16.9196 120.723 16.9196L119.572 17.0635L118.997 17.0155H118.445L117.966 16.8237C117.662 17.1914 117.318 17.3752 116.935 17.3752L116.743 17.4232H116.695L116.191 17.2793C116.095 17.2793 116.031 17.2234 115.999 17.1115C115.968 16.9836 115.92 16.9196 115.856 16.9196C115.648 17.3832 115.352 17.639 114.968 17.687C114.601 17.7349 114.289 17.8388 114.033 17.9987C113.634 18.1106 113.37 18.1665 113.242 18.1665C113.21 18.1665 113.146 18.1426 113.05 18.0946C112.363 19.1657 112.019 19.7252 112.019 19.7732C112.019 19.8691 112.267 19.917 112.762 19.917L113.098 20.0609C113.194 20.1408 113.37 20.2048 113.626 20.2527C113.897 20.3007 114.177 20.3726 114.465 20.4686L114.824 20.3726C114.856 20.3726 115.008 20.4126 115.28 20.4925L116.143 20.7563ZM107.463 19.1976C107.591 19.2296 107.767 19.2456 107.99 19.2456C108.118 19.2456 108.182 19.1897 108.182 19.0778C108.182 18.9818 108.134 18.9339 108.038 18.9339C107.783 18.9339 107.591 19.0218 107.463 19.1976ZM130.387 23.37L130.723 23.5139C130.755 23.2422 130.907 23.0104 131.178 22.8185H131.37C131.53 22.8185 131.738 22.6027 131.994 22.1711L132.401 21.9313C132.465 21.9633 132.561 21.9792 132.689 21.9792C132.785 21.9792 132.873 21.9153 132.953 21.7874C133.049 21.6595 133.273 21.4117 133.624 21.0441H133.72C133.816 21.0441 133.928 20.9721 134.056 20.8282C134.2 20.6844 134.384 20.6124 134.607 20.6124L135.423 20.3966C135.678 20.3327 135.822 20.3007 135.854 20.3007C135.998 20.2527 136.35 20.5485 136.909 21.1879C137.469 21.8114 137.749 22.4189 137.749 23.0104C137.749 23.3461 137.573 23.5459 137.221 23.6098L137.101 23.7058V24.1853L136.694 25.0726C136.582 25.3124 136.446 25.4642 136.286 25.5282C136.142 25.784 136.038 25.9598 135.974 26.0557L135.639 26.1037L135.495 26.2476V26.847C135.351 27.0389 135.143 27.4625 134.871 28.1179C134.599 28.7574 134.464 29.165 134.464 29.3409C134.464 29.6446 134.527 29.7965 134.655 29.7965C134.751 29.7965 134.847 29.7565 134.943 29.6766C135.039 29.5967 135.167 29.5087 135.327 29.4128C135.503 29.3009 135.631 29.189 135.71 29.0771C135.79 28.9652 135.958 28.8693 136.214 28.7894C136.47 28.6934 136.71 28.5256 136.933 28.2858C137.157 28.046 137.317 27.8861 137.413 27.8062C137.509 27.7263 137.613 27.6224 137.725 27.4945C137.837 27.3506 137.909 27.2787 137.941 27.2787C138.036 27.2787 138.188 27.2467 138.396 27.1828C138.428 27.0069 138.46 26.879 138.492 26.7991L139.068 26.5113L140.458 25.2644L140.65 25.0246C140.906 24.9607 141.066 24.9127 141.13 24.8807C141.258 24.4491 141.473 24.1374 141.777 23.9455C141.777 23.8816 141.857 23.8336 142.017 23.8017C142.145 23.5459 142.305 23.3461 142.497 23.2022C142.704 23.0423 142.872 22.8505 143 22.6267L143.552 22.1711C143.712 22.1071 143.823 22.0112 143.887 21.8833C144.719 21.148 145.23 20.7323 145.422 20.6364C145.63 20.5245 145.958 20.4686 146.405 20.4686C146.853 20.4686 147.213 20.6444 147.484 20.9961C147.772 21.3318 148.076 21.5876 148.396 21.7634C148.731 21.9393 148.899 22.275 148.899 22.7706C148.899 23.2342 148.539 24.1214 147.82 25.4323C147.356 26.8071 147.117 27.6543 147.101 27.9741C147.085 28.2778 147.013 28.4537 146.885 28.5016C146.757 28.5496 146.693 28.6055 146.693 28.6695V28.7654C146.693 29.1491 146.757 29.3409 146.885 29.3409C146.981 29.3409 147.109 29.261 147.268 29.1011C147.444 28.9412 147.788 28.7654 148.3 28.5736L148.515 28.6215C148.979 27.9181 149.291 27.5424 149.451 27.4945C149.61 27.4305 149.77 27.2867 149.93 27.0629C150.09 26.8231 150.282 26.6952 150.506 26.6792C150.745 26.6632 150.897 26.6232 150.961 26.5593C150.977 26.1756 151.289 25.744 151.896 25.2644C152.52 24.7848 152.88 24.545 152.976 24.545C153.135 24.545 153.263 24.6649 153.359 24.9047C153.455 25.1445 153.551 25.3124 153.647 25.4083C153.759 25.4882 153.815 25.5602 153.815 25.6241V26.0557C153.815 26.2635 153.711 26.3994 153.503 26.4634C153.343 26.8151 153.199 27.0229 153.071 27.0868L152.64 27.0389C152.56 27.1348 152.488 27.2227 152.424 27.3026C152.376 27.3826 152.344 27.4146 152.328 27.3986C152.2 27.4305 151.968 27.6464 151.633 28.046C151.313 28.4297 151.025 28.7494 150.769 29.0052L150.674 29.1491C150.546 29.245 150.426 29.3089 150.314 29.3409L149.882 29.7006C149.722 29.6047 149.626 29.5567 149.594 29.5567C149.562 29.5567 149.491 29.6206 149.379 29.7485C149.283 29.8764 149.075 30.0443 148.755 30.2521C148.451 30.4439 148.22 30.6677 148.06 30.9235L147.676 31.3072L147.173 31.3791C147.125 31.3791 147.045 31.4511 146.933 31.5949L146.501 32.1465C146.293 32.4182 145.966 32.5541 145.518 32.5541C145.422 32.5541 145.294 32.4742 145.134 32.3143C144.99 32.1385 144.847 31.9946 144.703 31.8827C144.575 31.7548 144.271 31.3951 143.791 30.8036C143.328 30.1961 143.096 29.8764 143.096 29.8445L143.24 29.0052L143.192 28.4297C143.192 28.3178 143.264 28.1499 143.408 27.9261C143.568 27.6863 143.648 27.5584 143.648 27.5424L143.6 26.6072C143.632 26.5753 143.664 26.5273 143.696 26.4634L144.031 25.9119C143.999 25.752 143.983 25.5761 143.983 25.3843L144.079 24.593C143.791 24.7209 143.536 24.9847 143.312 25.3843C143.104 25.768 142.824 25.9598 142.473 25.9598C142.169 26.5033 141.937 26.7671 141.777 26.7511C141.713 26.8151 141.665 26.879 141.633 26.943L141.298 27.1348L140.89 27.0868L140.746 27.6863C140.394 27.8782 140.163 28.054 140.051 28.2139C139.955 28.3577 139.795 28.5096 139.571 28.6695L139.163 29.0531H138.78C138.716 29.4848 138.468 29.8445 138.036 30.1322L137.845 30.372L137.413 30.324C137.253 30.8356 137.053 31.1473 136.814 31.2592C136.542 31.2592 136.166 31.507 135.686 32.0026C135.223 32.4982 134.895 32.7459 134.703 32.7459C133.313 32.7459 132.186 31.8747 131.322 30.1322C131.29 30.0683 131.21 29.9484 131.082 29.7725C130.971 29.5967 130.915 29.3249 130.915 28.9572C130.915 28.3338 130.995 27.9101 131.154 27.6863C131.33 27.4625 131.546 27.0469 131.802 26.4394C132.074 25.8159 132.273 25.5442 132.401 25.6241C132.433 25.5602 132.449 25.4642 132.449 25.3363C132.705 25.0326 132.833 24.8008 132.833 24.6409C132.833 24.577 132.801 24.545 132.737 24.545C132.705 24.545 132.609 24.593 132.449 24.6889L132.114 24.8328C131.97 24.8648 131.866 24.9287 131.802 25.0246C131.738 25.1205 131.626 25.2165 131.466 25.3124C131.306 25.3923 131.178 25.4642 131.082 25.5282H131.011C130.915 25.4323 130.851 25.3843 130.819 25.3843C130.723 25.6401 130.643 25.7999 130.579 25.8639L130.291 25.9119C129.939 26.2795 129.716 26.4634 129.62 26.4634C129.556 26.4634 129.412 26.4074 129.188 26.2955C128.964 26.1836 128.852 26.0717 128.852 25.9598L129.02 25.0246V24.593C129.02 24.561 129.084 24.4971 129.212 24.4012C129.244 24.4012 129.372 24.2333 129.596 23.8976C129.82 23.5459 130.083 23.37 130.387 23.37ZM161.392 32.0505L161.224 32.3863C161.16 32.5621 161.001 32.65 160.745 32.65C160.713 32.65 160.449 32.7459 159.954 32.9378C159.458 33.1296 159.05 33.2255 158.731 33.2255L158.083 33.2735C157.699 33.2735 157.324 33.1696 156.956 32.9618C156.588 32.738 156.325 32.5381 156.165 32.3623C156.005 32.1864 155.781 31.6589 155.493 30.7796C155.222 29.9004 155.086 29.3729 155.086 29.197C155.086 28.5736 155.254 28.2298 155.589 28.1659C155.589 28.07 155.509 27.8941 155.349 27.6384C155.206 27.3666 155.134 27.2147 155.134 27.1828C155.134 26.1916 155.349 25.4243 155.781 24.8807C155.589 24.2573 155.493 23.9136 155.493 23.8496C155.493 23.8177 155.533 23.6898 155.613 23.466C155.693 23.2262 155.749 23.0104 155.781 22.8185C155.813 22.6267 155.861 22.4668 155.925 22.3389L155.973 21.9313C156.005 21.7395 156.125 21.6435 156.333 21.6435C156.429 21.6435 156.477 21.5796 156.477 21.4517V21.2599L156.429 20.9481C156.429 20.5005 156.54 20.1808 156.764 19.989C156.988 19.7811 157.132 19.4854 157.196 19.1017C157.276 18.7021 157.372 18.4543 157.484 18.3584C157.596 18.2625 157.683 18.0946 157.747 17.8548L158.083 17.1834L158.347 16.2962C158.379 16.1203 158.475 16.0084 158.635 15.9604C158.795 15.9125 158.874 15.8405 158.874 15.7446L158.826 15.4569C158.954 15.1212 159.042 14.8814 159.09 14.7375C159.138 14.5936 159.282 14.4737 159.522 14.3778C159.746 13.8343 159.938 13.4506 160.097 13.2268C160.273 13.003 160.409 12.7472 160.505 12.4595C160.601 12.1717 160.841 11.892 161.224 11.6202C161.256 11.5562 161.32 11.3964 161.416 11.1406C161.528 10.8688 161.664 10.717 161.824 10.685C161.984 10.653 162.064 10.5891 162.064 10.4932L161.968 10.3013C161.968 10.1734 162.088 9.94164 162.327 9.60593L162.615 9.07839C162.759 8.91853 162.919 8.79863 163.095 8.7187C163.319 8.27109 163.606 7.82347 163.958 7.37586C164.31 6.92825 164.613 6.44866 164.869 5.9371C165.237 5.50548 165.581 5.19375 165.9 5.00191L166.692 4.01876C166.884 3.61911 167.075 3.41928 167.267 3.41928C167.571 2.84378 167.947 2.4681 168.394 2.29225C168.474 2.26028 168.698 2.09242 169.066 1.78869C169.449 1.46896 169.785 1.3091 170.073 1.3091C170.329 1.3091 170.656 1.58886 171.056 2.14838C171.456 2.70789 171.655 3.17949 171.655 3.56315C171.655 3.65907 171.599 3.80295 171.488 3.99478C171.392 4.17063 171.336 4.36246 171.32 4.57028C171.304 4.76212 171.208 5.32164 171.032 6.24883C170.856 7.17603 170.704 7.70358 170.576 7.83147L169.929 9.07839C169.865 9.27022 169.793 9.38213 169.713 9.4141C169.633 9.44607 169.537 9.57396 169.425 9.79777L169.545 10.3013H169.497C169.321 10.4932 169.138 10.8529 168.946 11.3804C168.69 11.7641 168.466 12.1318 168.274 12.4834C168.098 12.8192 168.011 13.043 168.011 13.1549L167.867 13.4906C167.515 14.0181 167.283 14.4418 167.171 14.7615C167.011 14.8894 166.884 15.0652 166.788 15.289C166.708 15.5128 166.596 15.6807 166.452 15.7926C166.308 15.8885 166.212 16.0644 166.164 16.3201C166.132 16.5759 166.092 16.7278 166.044 16.7757L165.565 16.7278V16.7757L165.613 17.4711C165.613 17.5351 165.533 17.607 165.373 17.687C165.229 17.7669 165.101 17.9427 164.989 18.2145C164.877 18.4703 164.677 18.6142 164.39 18.6461C164.246 18.742 164.158 18.838 164.126 18.9339L164.222 19.3895C164.19 19.4215 164.062 19.5893 163.838 19.893C163.63 20.1968 163.502 20.3566 163.454 20.3726L162.951 20.4206C162.855 20.4526 162.807 20.7323 162.807 21.2599C162.807 21.6116 162.647 21.8514 162.327 21.9792C161.496 23.2581 161.009 23.9695 160.865 24.1134C160.737 24.2573 160.481 24.3692 160.097 24.4491C160.097 24.4811 160.065 24.4971 160.001 24.4971C159.842 24.4971 159.498 24.2653 158.97 23.8017H158.922C158.715 24.7289 158.547 25.2564 158.419 25.3843C158.307 25.5122 158.251 25.6561 158.251 25.8159L158.491 26.2476V26.3195C158.491 26.7671 158.411 27.3186 158.251 27.9741V28.1179L158.347 28.6215V29.5087L158.299 30.0363C158.427 30.2601 158.491 30.4599 158.491 30.6358C158.491 31.1473 158.619 31.4031 158.874 31.4031C159.002 31.4031 159.202 31.2432 159.474 30.9235L159.762 30.7796C160.049 30.6518 160.321 30.364 160.577 29.9164C160.849 29.4688 160.985 29.0851 160.985 28.7654C160.985 28.4297 160.657 28.2618 160.001 28.2618C159.682 28.1979 159.522 27.8542 159.522 27.2307C159.522 26.943 159.642 26.6872 159.882 26.4634C160.121 26.2236 160.329 25.9758 160.505 25.72C160.889 25.1285 161.296 24.8328 161.728 24.8328L162.951 24.4012C163.079 24.4012 163.199 24.4251 163.311 24.4731C163.439 24.5211 163.598 24.577 163.79 24.6409C164.302 24.4491 164.566 24.3532 164.582 24.3532C165.141 24.3532 165.517 24.6409 165.709 25.2165C165.709 25.3284 165.836 25.3843 166.092 25.3843C166.652 25.3843 167.115 25.2165 167.483 24.8807C167.867 24.529 168.266 24.2493 168.682 24.0415C169.114 23.8177 169.457 23.5939 169.713 23.37C169.985 23.1303 170.153 23.0104 170.217 23.0104H170.576C170.608 23.0104 170.704 22.9064 170.864 22.6986C171.024 22.4908 171.32 22.3869 171.751 22.3869C171.911 22.3869 171.991 22.4508 171.991 22.5787C171.991 23.426 171.863 23.9296 171.607 24.0894C171.368 24.2333 171.072 24.577 170.72 25.1205L170.456 25.2644C170.297 25.4083 170.153 25.5681 170.025 25.744C169.897 25.9198 169.769 26.0238 169.641 26.0557C169.273 26.6152 168.994 26.895 168.802 26.895C168.706 26.895 168.594 26.855 168.466 26.7751C168.354 26.6952 168.282 26.6552 168.25 26.6552C168.154 26.6552 168.074 26.847 168.011 27.2307C167.915 27.3746 167.651 27.6064 167.219 27.9261C167.155 27.9261 167.043 27.8302 166.884 27.6384C166.884 27.6064 166.868 27.5904 166.836 27.5904C166.58 27.5904 166.42 27.7343 166.356 28.022C166.308 28.3098 166.132 28.4696 165.828 28.5016L164.869 28.6695L164.318 28.6215C164.19 28.6215 163.91 29.0132 163.478 29.7965C163.063 30.5798 162.807 30.9875 162.711 31.0194C162.216 31.1793 161.872 31.475 161.68 31.9067L161.392 32.0505ZM169.545 4.5463V4.25855C169.178 4.35447 168.914 4.69817 168.754 5.28966L168.562 5.4815C168.258 5.67333 168.019 5.9451 167.843 6.29679C167.667 6.6325 167.379 7.04814 166.979 7.54372L166.884 7.83147L166.332 8.52687L166.236 8.98247C166.204 9.04642 166.084 9.15033 165.876 9.2942C165.669 9.43808 165.525 9.63791 165.445 9.89369C165.381 10.1335 165.205 10.4292 164.917 10.7809C164.645 11.1166 164.454 11.3484 164.342 11.4763C164.246 11.5882 164.062 12.0119 163.79 12.7472L163.646 12.987C163.646 13.1309 163.566 13.2508 163.407 13.3467L162.519 14.4258C162.519 14.4897 162.487 14.7215 162.423 15.1212C162.184 15.1531 162.032 15.2491 161.968 15.4089L161.584 16.2962C161.552 16.3921 161.472 16.504 161.344 16.6319C161.136 17.3992 160.841 17.9587 160.457 18.3104L159.906 19.4374C159.842 19.5653 159.794 19.7412 159.762 19.965L159.714 20.1089C159.522 20.4765 159.426 20.7563 159.426 20.9481C159.426 21.0121 159.41 21.2119 159.378 21.5476H159.426C159.458 21.5476 159.522 21.5077 159.618 21.4277C159.714 21.3478 159.842 21.2599 160.001 21.164C160.161 21.052 160.289 20.8522 160.385 20.5645C160.481 20.2767 160.633 20.0769 160.841 19.965C161.065 19.8371 161.208 19.7092 161.272 19.5813L162.711 17.663C162.807 17.5351 162.935 17.3912 163.095 17.2313C163.271 17.0555 163.359 16.9196 163.359 16.8237L163.55 16.488C163.646 16.3921 163.806 16.2162 164.03 15.9604C164.27 15.7047 164.454 15.5288 164.582 15.4329C164.709 15.337 164.781 15.1851 164.797 14.9773C164.813 14.7695 164.901 14.5537 165.061 14.3299L165.157 14.138C165.333 13.9302 165.477 13.7783 165.589 13.6824C165.701 13.5865 165.764 13.4826 165.78 13.3707C165.796 13.2588 165.98 13.051 166.332 12.7472C166.364 12.5074 166.548 12.1238 166.884 11.5962C167.235 11.0527 167.499 10.5651 167.675 10.1335C167.851 9.70185 168.019 9.40611 168.178 9.24625C168.354 9.0704 168.466 8.76666 168.514 8.33503L168.754 7.95136L169.497 5.88914L169.377 5.38558L169.545 4.5463Z" fill="#101828"/>
</svg>
